<svg width="24" height="24" viewBox="0 0 24 24" fill="none" xmlns="http://www.w3.org/2000/svg">
<g id="Support / FAQ Assistent">
<g id="Assistant 2">
<path id="Path" d="M9.19263 15.1805C9.57105 15.1805 9.93407 15.3364 10.2017 15.6138L10.7241 16.1551L11.4197 16.8761C11.6985 17.165 12.1504 17.165 12.429 16.876L13.1246 16.1551L13.6469 15.6138C13.9146 15.3364 14.2776 15.1805 14.656 15.1805H9.19263Z" fill="url(#paint0_linear_202_3603)"/>
<path id="Path_2" d="M12.7126 17.9519C12.3107 18.3448 11.6588 18.3448 11.2568 17.9519L9.87344 16.5996C9.29927 16.0382 8.31854 16.2274 8.01768 16.9646C7.58102 18.0348 7.58102 19.2921 8.01768 20.3622C8.31854 21.0995 9.29927 21.2886 9.87344 20.7274L10.7281 19.8918L13.1536 17.5208L12.7126 17.9519Z" fill="#5D5D5C"/>
<path id="Path_3" d="M13.9941 16.6279L13.0446 17.5926L10.6008 20.0757L11.1335 19.5345C11.5386 19.123 12.1953 19.123 12.6003 19.5345L13.9941 20.9507C14.5726 21.5385 15.5607 21.3404 15.8638 20.5683C16.3038 19.4476 16.3038 18.1309 15.8638 17.0102C15.6804 16.5432 15.2464 16.2861 14.8039 16.2861C14.5151 16.2861 14.2226 16.3957 13.9941 16.6279Z" fill="url(#paint1_linear_202_3603)"/>
<path id="Shape" fill-rule="evenodd" clip-rule="evenodd" d="M18.2188 4.46712C18.0874 3.38518 17.2532 2.53319 16.1708 2.40259C16.1708 2.40259 14.453 2.13611 11.9244 2.13611C9.39559 2.13611 7.67778 2.40259 7.67778 2.40259C6.59553 2.53319 5.76121 3.38518 5.62987 4.46712C5.62976 4.4673 5.36829 6.39745 5.36829 8.69217C5.36829 10.987 5.62976 12.917 5.62987 12.9172C5.76121 13.9995 6.59553 14.8511 7.67778 14.9818C7.67778 14.9818 9.39559 15.2483 11.9244 15.2483C14.453 15.2483 16.1708 14.9818 16.1708 14.9818C17.2532 14.8511 18.0874 13.9995 18.2188 12.9172C18.2188 12.9172 18.4805 10.987 18.4805 8.69217C18.4805 6.41855 18.2236 4.50284 18.2189 4.46761L18.2189 4.46759L18.2189 4.46758L18.2188 4.46712ZM16.4798 11.7501C16.385 12.5332 15.781 13.1496 14.9976 13.2443C14.9976 13.2443 13.7544 13.4371 11.9244 13.4371C10.0942 13.4371 8.85095 13.2443 8.85095 13.2443C8.06768 13.1496 7.46398 12.5332 7.36883 11.7501C7.36883 11.7501 7.17952 10.353 7.17952 8.69217C7.17952 7.03134 7.36883 5.63454 7.36883 5.63454C7.46398 4.85122 8.06768 4.23475 8.85095 4.14023C8.85095 4.14023 10.0942 3.94727 11.9244 3.94727C13.7544 3.94727 14.9976 4.14023 14.9976 4.14023C15.781 4.23475 16.385 4.85122 16.4798 5.63428C16.4798 5.63428 16.6692 7.03134 16.6692 8.69217C16.6692 10.3352 16.4839 11.72 16.4799 11.7496V11.7496L16.4799 11.7496L16.4798 11.7501ZM14.6561 6.86078V7.5182C14.6561 7.62019 14.5574 7.59733 14.5574 7.59733C14.2559 7.54364 13.9156 7.51366 13.5928 7.50684C13.2597 7.50095 12.9804 7.51802 12.6949 7.55734C12.6949 7.55734 12.6073 7.59034 12.6073 7.46951V6.81926C12.6073 6.75468 12.6828 6.73211 12.6828 6.73211C12.9863 6.66813 13.2903 6.63889 13.5953 6.644C13.9191 6.65081 14.2465 6.69762 14.5769 6.78147C14.5769 6.78147 14.6561 6.80045 14.6561 6.86078ZM11.378 7.05288C11.378 6.23483 10.3537 6.23367 10.3537 6.23367C10.3537 6.23367 9.32926 6.23483 9.32926 7.05288C9.32926 7.87147 10.3537 7.87269 10.3537 7.87269C10.3537 7.87269 11.378 7.87147 11.378 7.05288ZM9.30952 10.2905C9.65969 10.5526 10.7567 11.2867 12.061 11.2873C13.3654 11.2867 14.4616 10.5526 14.8125 10.2905C14.8125 10.2905 14.9293 10.1846 14.9293 10.0842V9.74976C14.9293 9.58236 14.7966 9.67258 14.7966 9.67258C14.4417 9.88624 13.4052 10.4309 12.061 10.4309C10.7167 10.4309 9.68035 9.88624 9.32556 9.67258C9.32556 9.67258 9.19268 9.58236 9.19268 9.74976V10.0842C9.19268 10.1846 9.30952 10.2905 9.30952 10.2905Z" fill="#5D5D5C"/>
</g>
</g>
<defs>
<linearGradient id="paint0_linear_202_3603" x1="9.33784" y1="15.2282" x2="9.33784" y2="17.0387" gradientUnits="userSpaceOnUse">
<stop stop-color="#3B3B3B"/>
<stop offset="1" stop-color="#797979"/>
</linearGradient>
<linearGradient id="paint1_linear_202_3603" x1="17.3591" y1="18.5388" x2="13.6324" y2="16.07" gradientUnits="userSpaceOnUse">
<stop stop-color="#636363"/>
<stop offset="1" stop-color="#3D3D3D"/>
</linearGradient>
</defs>
</svg>
