<svg width="24" height="24" viewBox="0 0 24 24" fill="none" xmlns="http://www.w3.org/2000/svg">
<g id="generic/promo-euro">
<g id="icon">
<path d="M9.519 11.75C9.51123 11.8331 9.50735 11.9165 9.50735 12C9.50735 12.0835 9.51123 12.1669 9.519 12.25H11C11.4142 12.25 11.75 12.5858 11.75 13C11.75 13.4142 11.4142 13.75 11 13.75H10.1625C10.2024 13.7957 10.2441 13.8403 10.2877 13.8839C10.808 14.4043 11.4886 14.6642 12.1716 14.6642C12.8546 14.6642 13.5351 14.4043 14.0554 13.8839C14.3483 13.591 14.8232 13.591 15.1161 13.8839C15.409 14.1768 15.409 14.6517 15.1161 14.9445C14.3031 15.7575 13.2361 16.1642 12.1716 16.1642C11.107 16.1642 10.04 15.7575 9.22702 14.9445C8.87048 14.588 8.59209 14.1826 8.39187 13.75H7.5C7.08579 13.75 6.75 13.4142 6.75 13C6.75 12.5858 7.08579 12.25 7.5 12.25H8.01483C8.00984 12.1667 8.00735 12.0834 8.00735 12C8.00735 11.9166 8.00984 11.8333 8.01483 11.75H7.5C7.08579 11.75 6.75 11.4142 6.75 11C6.75 10.5858 7.08579 10.25 7.5 10.25H8.39187C8.59209 9.81738 8.87048 9.41199 9.22702 9.05545C10.04 8.24249 11.107 7.83578 12.1716 7.83578C13.2361 7.83579 14.3031 8.24249 15.1161 9.05545C15.409 9.34835 15.409 9.82322 15.1161 10.1161C14.8232 10.409 14.3483 10.409 14.0554 10.1161C13.5351 9.59575 12.8546 9.33578 12.1716 9.33578C11.4886 9.33578 10.808 9.59575 10.2877 10.1161C10.2441 10.1597 10.2024 10.2043 10.1625 10.25H11C11.4142 10.25 11.75 10.5858 11.75 11C11.75 11.4142 11.4142 11.75 11 11.75H9.519Z" fill="#291D18"/>
<path d="M10.6975 2.26431C11.2733 1.2563 12.7267 1.25629 13.3025 2.26431L14.6713 4.66075L17.2604 3.70486C18.3494 3.30278 19.4627 4.23702 19.2559 5.37931L18.7641 8.09497L21.3618 9.0269C22.4545 9.41889 22.7069 10.8502 21.8142 11.5923L19.6918 13.3565L21.0828 15.7402C21.6679 16.7428 20.9412 18.0015 19.7803 17.9962L17.0205 17.9834L16.5538 20.7035C16.3575 21.8477 14.9918 22.3448 14.1059 21.5945L12 19.8107L9.89406 21.5945C9.00824 22.3448 7.64248 21.8477 7.44618 20.7035L6.9795 17.9834L4.21969 17.9962C3.05884 18.0015 2.33213 16.7428 2.9172 15.7402L4.30815 13.3565L2.18582 11.5923C1.2931 10.8502 1.54548 9.41889 2.63817 9.0269L5.2359 8.09497L4.74411 5.37931C4.53724 4.23702 5.65062 3.30278 6.73964 3.70486L9.32865 4.66075L10.6975 2.26431ZM12 4.01638L10.8552 6.02047C10.4916 6.65711 9.72101 6.93758 9.03322 6.68364L6.86808 5.88424L7.27936 8.1553C7.41001 8.87675 6.99999 9.58692 6.30988 9.83449L4.13744 10.6138L5.91231 12.0892C6.47613 12.5579 6.61852 13.3655 6.24901 13.9987L5.08578 15.9921L7.39376 15.9815C8.12693 15.9781 8.75511 16.5052 8.87909 17.2278L9.26936 19.5026L11.0305 18.0109C11.59 17.537 12.41 17.537 12.9695 18.0109L14.7306 19.5026L15.1209 17.2278C15.2449 16.5052 15.8731 15.9781 16.6062 15.9815L18.9142 15.9921L17.751 13.9987C17.3815 13.3655 17.5239 12.5579 18.0877 12.0892L19.8625 10.6138L17.6901 9.83449C17 9.58691 16.59 8.87674 16.7206 8.1553L17.1319 5.88424L14.9668 6.68364C14.279 6.93758 13.5084 6.65711 13.1447 6.02047L12 4.01638Z" fill="#291D18"/>
</g>
</g>
</svg>
