<svg width="24" height="24" viewBox="0 0 24 24" fill="none" xmlns="http://www.w3.org/2000/svg">
<path fill-rule="evenodd" clip-rule="evenodd" d="M12.798 5.01264L12.6745 4.99283C12.3476 4.94755 12.0165 4.92466 11.6827 4.92466L11.3145 4.93397C11.0699 4.94638 10.8271 4.97113 10.5868 5.00803L10.446 5.03264L9.79246 3.86782C9.2985 3.03708 8.22463 2.76407 7.39389 3.25803L5.83992 4.18202L5.70894 4.26794C4.99526 4.78275 4.76948 5.76005 5.20781 6.54195L5.912 7.79764L5.84129 7.88945C5.31742 8.59264 4.91719 9.38562 4.66138 10.2341L4.647 10.2826L3.75006 10.2833C2.7835 10.2833 2 11.0668 2 12.0333V13.9137L2.0058 14.0572C2.07881 14.9566 2.83183 15.6637 3.75 15.6637L5.028 15.6636L5.113 15.8472C5.32624 16.2827 5.58023 16.6958 5.871 17.0808L5.978 17.2156L5.42443 18.204C4.96034 19.0318 5.24076 20.0788 6.05656 20.5639L7.64086 21.5055L7.77696 21.5744C8.60286 21.9497 9.58368 21.6381 10.0314 20.8394L10.549 19.9146L10.6547 19.9327C10.9932 19.9814 11.3365 20.006 11.6827 20.006L12.0349 19.9975C12.3859 19.9805 12.7331 19.938 13.0746 19.8708L13.208 19.8406L14.0152 21.0264C14.5805 21.8103 15.6743 21.9875 16.4582 21.4221L17.9316 20.3596L18.0543 20.2626C18.7189 19.6878 18.8584 18.6963 18.3551 17.9562L17.63 16.8896L17.7246 16.7586C17.9298 16.4552 18.113 16.1366 18.2727 15.8054L18.357 15.6176L19.7503 15.6175C20.7165 15.6175 21.5 14.834 21.5 13.8675V11.9871L21.4942 11.8436C21.4212 10.9442 20.6682 10.2371 19.75 10.2371L18.704 10.2366L18.6985 10.2161C18.4573 9.4233 18.0901 8.67954 17.6141 8.01284L17.384 7.70764L18.0159 6.74501C18.5355 5.95188 18.3292 4.88956 17.5508 4.34867L16.0209 3.28636C15.2124 2.75672 14.1277 2.98275 13.5981 3.79121L12.798 5.01264ZM12.75 12.3786C12.75 12.9309 12.3023 13.3786 11.75 13.3786C11.1977 13.3786 10.75 12.9309 10.75 12.3786C10.75 11.8264 11.1977 11.3786 11.75 11.3786C12.3023 11.3786 12.75 11.8264 12.75 12.3786ZM16.6949 5.58048L15.1989 4.54108C15.0834 4.46542 14.9284 4.49771 14.8529 4.61298L13.7786 6.25418C13.606 6.5178 13.2871 6.64545 12.9803 6.5737C12.5581 6.47497 12.1238 6.42466 11.6827 6.42466C11.1946 6.42466 10.7151 6.48623 10.2512 6.60675C9.92134 6.69243 9.57523 6.54501 9.4085 6.24783L8.50635 4.63996L8.46152 4.58188C8.38243 4.50581 8.25941 4.48852 8.16051 4.54733L6.60654 5.47132C6.49 5.54062 6.44993 5.69018 6.51618 5.80834L7.47127 7.5114C7.62779 7.79048 7.59001 8.13813 7.37719 8.37708C6.67454 9.166 6.18499 10.1334 5.96533 11.1865C5.89281 11.5343 5.58629 11.7834 5.23108 11.7834L3.75 11.7833C3.61193 11.7833 3.5 11.8952 3.5 12.0333V13.9137C3.5 14.0518 3.61193 14.1637 3.7502 14.1637L5.52644 14.1642C5.8388 14.1642 6.11841 14.3579 6.2283 14.6503C6.50356 15.3827 6.91572 16.0522 7.43897 16.6219C7.65824 16.8606 7.69934 17.2132 7.54085 17.496L6.73288 18.9375C6.66658 19.0557 6.70664 19.2053 6.82318 19.2746L8.38267 20.2018C8.50311 20.2693 8.65548 20.2264 8.7231 20.1058L9.50733 18.7078C9.67188 18.4144 10.0116 18.2665 10.3384 18.3459C10.7752 18.4519 11.2252 18.506 11.6827 18.506C12.2428 18.506 12.7916 18.4249 13.3181 18.2669C13.6316 18.1728 13.9699 18.2928 14.154 18.5636L15.2279 20.1433L15.2757 20.1944C15.3635 20.2664 15.4875 20.2728 15.5808 20.2055L17.0542 19.143C17.1641 19.0638 17.1909 18.9116 17.1146 18.7994L16.0876 17.2879C15.9001 17.0119 15.9174 16.6452 16.1302 16.3882C16.567 15.8604 16.9134 15.2589 17.1523 14.6093C17.2607 14.3143 17.5416 14.1183 17.8559 14.1182L19.75 14.1175C19.8881 14.1175 20 14.0056 20 13.8675V11.9871C20 11.849 19.8881 11.7371 19.7501 11.7371L18.1245 11.7373C17.7712 11.7373 17.4658 11.4908 17.3913 11.1454C17.158 10.0636 16.6394 9.07459 15.8992 8.27934C15.6639 8.02659 15.6316 7.64586 15.8209 7.35709L16.7613 5.92278C16.8355 5.80951 16.8061 5.65775 16.6949 5.58048Z" fill="#291D18"/>
</svg>
