<svg width="40" height="40" viewBox="0 0 24 24" fill="none" xmlns="http://www.w3.org/2000/svg">
<g id="Support / FAQ">
<path id="Combined Shape" fill-rule="evenodd" clip-rule="evenodd" d="M12.002 2C6.47917 2 2.00201 6.47715 2.00201 12L2.00733 12.3283C2.07806 14.5108 2.85242 16.5683 4.18139 18.233L4.32701 18.409L2.32252 20.2663C1.65523 20.8843 2.09251 22 3.00201 22H12.002L12.2818 21.9961C17.6947 21.8394 22.002 17.4131 22.002 12C22.002 6.47715 17.5249 2 12.002 2ZM12.002 4C16.4203 4 20.002 7.58172 20.002 12C20.002 16.3303 16.556 19.8716 12.2384 19.9966L11.9876 20.0001L5.55201 20L6.41947 19.198C6.84027 18.8083 6.84774 18.1452 6.43583 17.7461C4.88969 16.248 4.00201 14.1959 4.00201 12C4.00201 7.58172 7.58373 4 12.002 4ZM11.368 13.504C11.966 13.504 12.4275 13.036 12.4275 12.503C12.4275 12.0963 12.798 11.8553 13.2171 11.5827C13.7627 11.2278 14.3905 10.8194 14.3905 9.9225C14.3905 8.499 13.2725 7.615 11.6345 7.615C10.8415 7.615 10.133 7.823 9.63251 8.187C9.35301 8.3885 9.19701 8.6485 9.19701 9.0255C9.19701 9.474 9.58051 9.9615 10.1655 9.9615C10.4321 9.9615 10.6344 9.83279 10.7809 9.73954C10.8023 9.72593 10.8225 9.71308 10.8415 9.7015C11.1275 9.526 11.4005 9.461 11.6345 9.461C11.9595 9.461 12.2455 9.591 12.2455 9.8965C12.2455 10.098 12.1415 10.2085 11.862 10.4035L11.6345 10.566C10.77 11.1835 10.315 11.6905 10.315 12.503C10.315 13.036 10.7765 13.504 11.368 13.504ZM11.368 16C11.9595 16 12.421 15.597 12.421 15.0575V14.817C12.421 14.2775 11.9595 13.8745 11.368 13.8745C10.77 13.8745 10.3085 14.2775 10.3085 14.817V15.0575C10.3085 15.597 10.77 16 11.368 16Z" fill="#291D18"/>
</g>
</svg>
