<svg width="40" height="40" viewBox="0 0 24 24" fill="none" xmlns="http://www.w3.org/2000/svg">
<g id="Support / Shop">
<path id="Combined Shape" fill-rule="evenodd" clip-rule="evenodd" d="M18.75 3H4.75C3.23122 3 2 4.23122 2 5.75V17.75C2 19.2688 3.23122 20.5 4.75 20.5H18.75C20.2688 20.5 21.5 19.2688 21.5 17.75V5.75C21.5 4.23122 20.2688 3 18.75 3ZM7.75 5.99405C7.08525 5.99405 6.50678 5.34507 6.50006 4.5H8.99994C8.99322 5.34507 8.41475 5.99405 7.75 5.99405ZM9.74887 6.55337C9.25096 7.13067 8.5445 7.49405 7.75 7.49405C6.95574 7.49405 6.24947 7.1309 5.75159 6.5539C5.25338 7.13084 4.54562 7.49405 3.75 7.49405C3.66606 7.49405 3.58266 7.48994 3.5 7.48181V9.25H20V7.48174C19.9173 7.48991 19.8339 7.49405 19.75 7.49405C18.9547 7.49405 18.2479 7.12936 17.75 6.55017C17.2521 7.12936 16.5453 7.49405 15.75 7.49405C14.9558 7.49405 14.2497 7.13031 13.7519 6.55243C13.2538 7.13024 12.5459 7.49405 11.75 7.49405C10.9545 7.49405 10.247 7.13063 9.74887 6.55337ZM18.5001 4.5C18.5096 5.34585 19.0874 5.99405 19.75 5.99405C19.8349 5.99405 19.9184 5.98375 20 5.96347V5.75C20 5.05964 19.4404 4.5 18.75 4.5H18.5001ZM15.75 5.99405C15.0874 5.99405 14.5096 5.34585 14.5001 4.5H16.9999C16.9904 5.34585 16.4126 5.99405 15.75 5.99405ZM10.5 4.5C10.5028 5.34395 11.0822 5.99405 11.75 5.99405C12.4178 5.99405 12.9972 5.34395 13 4.5H10.5ZM5 4.5H4.75C4.05964 4.5 3.5 5.05964 3.5 5.75V5.96391C3.58153 5.98389 3.66512 5.99405 3.75 5.99405C4.41898 5.99405 4.9988 5.34349 5 4.5ZM10.5 10.75H20V15H10.5V10.75ZM9 10.75H3.5V17.75C3.5 18.4404 4.05964 19 4.75 19H9V10.75ZM10.5 19H18.75C19.4404 19 20 18.4404 20 17.75V16.5H10.5V19ZM5.75 14.25C5.75 14.5261 5.52614 14.75 5.25 14.75C4.97386 14.75 4.75 14.5261 4.75 14.25C4.75 13.9739 4.97386 13.75 5.25 13.75C5.52614 13.75 5.75 13.9739 5.75 14.25Z" fill="#291D18"/>
</g>
</svg>
