<svg width="40" height="40" viewBox="0 0 24 24" fill="none" xmlns="http://www.w3.org/2000/svg">
<g id="Support / CallCentre">
<path id="Combined Shape" fill-rule="evenodd" clip-rule="evenodd" d="M18.9291 8C18.4439 4.6077 15.5265 2 12 2C8.47353 2 5.55612 4.60771 5.07089 8H5L4.82617 8.00461C3.27172 8.08728 2 9.27149 2 10.7778V15.2222L2.00518 15.3882C2.09803 16.8696 3.42596 18 5 18H5.18032C5.52232 19.1884 6.30009 20.1663 7.49656 20.8639C7.97368 21.1421 8.58596 20.9808 8.86413 20.5037C9.14231 20.0266 8.98104 19.4143 8.50393 19.1361C7.36929 18.4746 6.88765 17.5159 6.99705 16.0955L7 9.00085L7 9L7.00462 8.78311C7.11818 6.12231 9.31124 4 12 4C14.7614 4 17 6.23857 17 9V17.0187L17.0003 17.0238C17.0008 17.0471 17.0022 17.0702 17.0043 17.093L17.0067 17.1353C17.0645 17.6327 17.4871 18.0187 18 18.0187C18.0662 18.0187 18.1309 18.0123 18.1935 18H19C20.574 18 21.902 16.8696 21.9948 15.3882L22 15.2222V10.7778C22 9.27149 20.7283 8.08728 19.1738 8.00461L19 8H18.9291ZM19 10V16H19L19.1303 15.9935C19.6394 15.942 20 15.5929 20 15.2222V10.7778L19.9926 10.6857C19.934 10.3205 19.5324 10 19 10H19ZM4.00739 10.6857C4.06602 10.3205 4.46757 10 5 10V16L4.86974 15.9935C4.36059 15.942 4 15.5929 4 15.2222V10.7778L4.00739 10.6857ZM11.5 21C11.5 20.4477 11.0523 20 10.5 20C9.94772 20 9.5 20.4477 9.5 21C9.5 21.5523 9.94772 22 10.5 22C11.0523 22 11.5 21.5523 11.5 21Z" fill="#291D18"/>
</g>
</svg>
